
<svg id="_x30_8_Skirt_1_" enable-background="new 0 0 64 64" height="512" viewBox="0 0 64 64" width="512" xmlns="http://www.w3.org/2000/svg"><path d="m63.8 46c-3.3-11.8-7.4-24.6-15.1-38.1v-4.7c0-.6-.5-1-1-1h-4.4c-.6-1-1.8-1.8-3.9-1.8-.5 0-2.4.4-4.5 1.1-.9-.4-1.9-.6-2.9-.6-1.1 0-2.1.2-2.9.6-2-.7-4-1.1-4.5-1.1-2.2 0-3.3.8-3.9 1.8h-4.4c-.6 0-1 .4-1 1v4.7c-7.7 13.5-11.8 26.3-15.1 38.1-.2.9-.2 1.8.2 2.7l3.1 7.3c.4 1 1.3 1.8 2.4 2.2s2.2.3 3.2-.3l2.3-1.3c1-.5 2.2-.2 2.7.8l1.7 3.1c.6 1.1 1.6 1.8 2.8 2s2.4-.1 3.3-.9l2.4-2.1c.4-.4 1-.5 1.5-.5.6.1 1 .3 1.4.8l1.7 2.2c.8 1 1.9 1.6 3.2 1.6s2.4-.6 3.2-1.6l1.7-2.2c.3-.4.8-.7 1.4-.8.5-.1 1.1.1 1.5.5l2.4 2.1c.9.8 2.1 1.1 3.3.9s2.2-.9 2.8-2l1.7-3.1c.5-1 1.7-1.3 2.7-.8l2.3 1.3c1 .5 2.2.6 3.2.3 1.1-.4 1.9-1.2 2.4-2.2l3.1-7.3c.2-.9.3-1.9 0-2.7zm-17.1-41.8v3h-2.7c.1-.5.1-1.1.1-1.5s0-.9-.1-1.5zm-4.7 1.5c0 2.4-.2 3.3-2.6 3.3-.5 0-1.5-.2-2.5-.5.6-.8 1-1.7 1-2.7s-.4-1.9-1-2.7c1.1-.3 2-.5 2.5-.5 2.4-.2 2.6.7 2.6 3.1zm-6.1 0c0 1.6-1.8 2.8-3.9 2.8s-3.9-1.3-3.9-2.8 1.8-2.8 3.9-2.8 3.9 1.2 3.9 2.8zm-11.3-3.3c.5 0 1.5.2 2.5.5-.7.8-1 1.7-1 2.7s.4 1.9 1 2.7c-1.1.3-2 .5-2.5.5-2.4 0-2.6-.9-2.6-3.3 0-2.2.2-3.1 2.6-3.1zm-7.3 6.8h3.4c.4.6.9 1.1 1.8 1.4v13.2l-2-1.4c-.3-.2-.8-.2-1.1 0l-2 1.4zm2.7-5c-.1.5-.1 1.1-.1 1.5s0 1 .1 1.5h-2.7v-3zm41.8 43.6-3.1 7.3c0 .1-.1.1-.1.2-3.2-13.8-6.6-24.9-10.3-33.9-.2-.5-.8-.8-1.3-.5-.5.2-.8.8-.5 1.3 3.7 9 7.1 20.2 10.4 34.1-.3 0-.6-.1-.9-.2l-2.3-1.3c-1.9-1-4.3-.3-5.4 1.6l-1.8 3.1-.1.1c-.5-8.1-2.2-20.3-3.8-32.4-.1-.5-.6-.9-1.1-.9-.5.1-.9.6-.9 1.1 1.7 12.4 3.4 24.9 3.9 33-.4-.1-.7-.2-1-.4l-2.5-2c-.8-.7-1.9-1.1-3-.9-1.1.1-2.1.7-2.8 1.6l-1.7 2.2c-.2.2-.4.4-.6.5v-29.4c0-.6-.4-1-1-1s-1 .4-1 1v29.3c-.2-.1-.4-.3-.6-.5l-1.7-2.2c-.7-.9-1.7-1.4-2.8-1.6-.1 0-.3 0-.4 0-1 0-1.9.3-2.6 1l-2.4 2.1c-.3.3-.6.4-1 .5.3-4.8 1-11.6 2.3-21.2.1-.5-.3-1-.9-1.1s-1.1.3-1.1.9c-1.2 9.1-1.9 15.7-2.2 20.6l-.1-.1-1.7-3.1c-1.1-1.9-3.5-2.6-5.4-1.6l-2.3 1.3c-.3.2-.6.2-.9.2 2.3-10 4.7-18.5 7.2-25.8.2-.5-.1-1.1-.6-1.3s-1.1.1-1.3.6c-2.5 7.3-4.9 15.7-7.2 25.5 0-.1-.1-.1-.1-.2l-3.1-7.3c-.2-.4-.2-.9-.1-1.3 3-10.7 6.8-22.3 13.2-34.5v13.6c0 .4.2.7.5.9s.7.2 1-.1l3-2 3 2c.2.1.4.2.6.2s.3 0 .5-.1c.3-.2.5-.5.5-.9v-14.9h.1c.5 0 2.4-.4 4.5-1.1.9.4 1.9.7 3 .7s2.1-.2 2.9-.6c2 .7 4 1.1 4.5 1.1 2.2 0 3.3-.8 3.9-1.8h3.8c7.5 13.2 11.5 25.8 14.8 37.3.3.4.3.9.1 1.3z"/></svg>