
<svg id="Layer_1" enable-background="new 0 0 512 512" viewBox="0 0 512 512" xmlns="http://www.w3.org/2000/svg"><g><g fill="none"><path d="m337.13 263.42c-4.1 0-7.41-3.32-7.41-7.41 0-4.1 3.32-7.41 7.41-7.41h6.49c-3.62-47.6-41.66-85.65-89.26-89.27v6.49c0 4.1-3.32 7.41-7.41 7.41s-7.41-3.32-7.41-7.41v-6.49c-47.6 3.62-85.65 41.67-89.27 89.27h6.49c4.1 0 7.41 3.32 7.41 7.41 0 4.1-3.32 7.41-7.41 7.41h-6.49c3.62 47.6 41.67 85.65 89.27 89.27v-6.5c0-4.1 3.32-7.41 7.41-7.41s7.41 3.32 7.41 7.41v6.5c47.6-3.62 85.64-41.67 89.26-89.27zm-39.92 0h-34.26c-2.82 6.06-8.88 10.33-16.01 10.33-9.8 0-17.75-7.94-17.75-17.74 0-2.14.52-4.14 1.22-6.04l-33.26-33.26c-2.9-2.9-2.9-7.59 0-10.48 2.9-2.9 7.59-2.9 10.48 0l33.26 33.26c1.9-.7 3.9-1.22 6.04-1.22 7.13 0 13.19 4.27 16.01 10.33h34.26c4.1 0 7.41 3.32 7.41 7.41.01 4.09-3.31 7.41-7.4 7.41z"/><path d="m168.89 381.03 9.83 74.83c44.16 13.55 92.26 13.55 136.42 0l9.84-74.83c-22.67 14.21-49.37 22.56-78.04 22.56s-55.37-8.36-78.05-22.56z"/><path d="m324.98 130.98-9.84-74.83c-44.18-13.56-92.27-13.56-136.42 0l-9.84 74.83c22.67-14.2 49.37-22.56 78.04-22.56s55.39 8.35 78.06 22.56z"/><path d="m246.94 123.25c-73.2 0-132.75 59.55-132.75 132.75s59.55 132.75 132.75 132.75 132.75-59.55 132.75-132.75-59.56-132.75-132.75-132.75zm0 244.64c-61.69 0-111.89-50.19-111.89-111.89s50.19-111.89 111.89-111.89 111.88 50.2 111.88 111.89-50.19 111.89-111.88 111.89z"/></g><path d="m246.94 144.11c-61.69 0-111.89 50.19-111.89 111.89s50.19 111.89 111.89 111.89 111.88-50.2 111.88-111.89-50.19-111.89-111.88-111.89zm7.41 208.58v-6.5c0-4.1-3.32-7.41-7.41-7.41s-7.41 3.32-7.41 7.41v6.5c-47.6-3.62-85.65-41.67-89.27-89.27h6.49c4.1 0 7.41-3.32 7.41-7.41 0-4.1-3.32-7.41-7.41-7.41h-6.49c3.62-47.6 41.67-85.65 89.27-89.27v6.49c0 4.1 3.32 7.41 7.41 7.41s7.41-3.32 7.41-7.41v-6.49c47.6 3.62 85.64 41.67 89.26 89.27h-6.49c-4.1 0-7.41 3.32-7.41 7.41 0 4.1 3.32 7.41 7.41 7.41h6.49c-3.62 47.6-41.66 85.64-89.26 89.27z"/><path d="m297.21 248.59h-34.26c-2.82-6.07-8.88-10.33-16.01-10.33-2.14 0-4.14.52-6.04 1.22l-33.26-33.26c-2.9-2.9-7.59-2.9-10.48 0-2.9 2.9-2.9 7.59 0 10.48l33.26 33.26c-.7 1.9-1.22 3.9-1.22 6.04 0 9.8 7.94 17.74 17.75 17.74 7.13 0 13.19-4.27 16.01-10.33h34.26c4.1 0 7.41-3.32 7.41-7.41-.01-4.1-3.33-7.41-7.42-7.41z"/><path d="m400.98 231.71h-8.64c-5.92-35.5-24.41-66.78-50.91-88.93-.01-.09.03-.18.02-.27l-12.21-92.96c-.37-2.82-2.32-5.19-5.03-6.08-49.82-16.41-104.7-16.41-154.54 0-2.71.89-4.66 3.26-5.03 6.08l-12.21 92.96c-.01.09.03.17.02.27-32.42 27.09-53.09 67.77-53.09 113.22 0 45.57 20.78 86.36 53.33 113.45l-.27.03 12.21 92.97c.37 2.82 2.32 5.19 5.03 6.08 24.91 8.2 51.09 12.3 77.27 12.3 26.17 0 52.35-4.1 77.27-12.3 2.71-.89 4.66-3.26 5.03-6.08l12.21-92.97c.01-.09-.03-.17-.02-.27 26.49-22.15 44.99-53.43 50.91-88.93h8.64c6.44 0 11.66-5.22 11.66-11.66v-25.26c.01-6.43-5.21-11.65-11.65-11.65zm-222.25-175.56c44.15-13.56 92.24-13.56 136.42 0l9.84 74.83c-22.67-14.21-49.37-22.56-78.05-22.56s-55.37 8.35-78.04 22.56zm136.42 399.7c-44.16 13.55-92.26 13.55-136.42 0l-9.83-74.83c22.67 14.2 49.37 22.56 78.05 22.56s55.37-8.35 78.04-22.56zm-68.21-67.1c-73.2 0-132.75-59.55-132.75-132.75s59.55-132.75 132.75-132.75 132.75 59.55 132.75 132.75-59.56 132.75-132.75 132.75z"/></g></svg>