<svg version="1.1" id="Capa_1" xmlns="http://www.w3.org/2000/svg" xmlns:xlink="http://www.w3.org/1999/xlink" x="0px" y="0px"
	 viewBox="0 0 24 24" width="24" height="24" style="enable-background:new 0 0 24 24;" xml:space="preserve">
<g>
	<g>
		<path d="M20.755,11.372h-0.285c-1.067,0-2.108-0.376-2.929-1.06l-5.65-4.699c-0.427-0.356-0.969-0.552-1.527-0.552
			c-1.318,0-2.389,1.071-2.389,2.389v0.558c0,1.086-0.883,1.969-1.969,1.969c-0.762,0-1.463-0.446-1.784-1.138l-0.157-0.338
			c-0.359-0.769-1.14-1.265-1.992-1.265C1.041,7.845,0,8.886,0,10.125v5.927c0,2.142,1.743,3.885,3.885,3.885h17.73
			c2.142,0,3.885-1.743,3.885-3.885C24,13.115,22.142,11.372,20.755,11.372z M20.755,18.485H3.885c-1.072,0-2.006-0.589-2.5-1.459
			h26.33C22.761,17.896,21.827,18.485,20.755,18.485z M1.385,15.154V10.125c0-0.415,0.337-0.752,0.752-0.752
			c0.291,0,0.56,0.171,0.684,0.435l0.157,0.338c0.559,1.197,1.774,1.971,3.093,1.971c1.881,0,3.412-1.531,3.412-3.412v-0.558
			c0-0.513,0.417-0.93,0.93-0.93c0.217,0,0.428,0.076,0.594,0.282l1.369,1.14l-1.561,1.561l1.007,1.007l1.656-1.656
			l0.618,0.515l-1.49,1.49l1.007,1.007l1.586-1.586l0.618,0.515l-1.421,1.421l1.007,1.007l1.528-1.528
			c1.013,0.731,2.238,1.129,3.49,1.129h0.285c1.162,0,2.125,0.868,2.275,1.987H1.385z"/>
	</g>
</g>
<g>
</g>
<g>
</g>
<g>
</g>
<g>
</g>
<g>
</g>
<g>
</g>
<g>
</g>
<g>
</g>
<g>
</g>
<g>
</g>
<g>
</g>
<g>
</g>
<g>
</g>
<g>
</g>
</svg>