
<svg id="Outline" height="512" viewBox="0 0 64 64" width="512" xmlns="http://www.w3.org/2000/svg"><path d="m48.099 13.622-2.126-8.855c-.001-.003-.003-.005-.003-.007 0-.001 0-.002 0-.003l-1-4c-.112-.445-.511-.757-.97-.757h-5-3-8-3-5c-.459 0-.858.312-.97.757l-1 4v.003c-.001.002-.002.004-.003.007l-2.126 8.855c-.676 2.817-1.079 5.709-1.199 8.596l-1.701 40.74c-.012.272.089.537.277.734.189.197.45.308.722.308h14c.51 0 .937-.383.994-.89l3.006-27.054 3.006 27.055c.056.506.484.889.994.889h14c.272 0 .533-.111.722-.308.188-.197.289-.462.277-.734l-1.701-40.74c-.12-2.887-.524-5.779-1.199-8.596zm-4.38-9.622h-1.719c-.553 0-1 .448-1 1s.447 1 1 1h2.212l1.443 6.01-2.709-.602c-.832-.185-1.561-.71-1.999-1.441l-1.322-2.204c.223-.183.375-.451.375-.763v-5h3.219zm-5.719-2v4h-1v-4zm-9 2v-2h6v2zm-2-2v4h-1v-4zm-3 0v2h-3.719l.501-2zm3.104 60h-12.061l1.657-39.699c.114-2.729.495-5.463 1.128-8.127l3.66-.813c1.365-.304 2.561-1.166 3.28-2.364l.577-.961c.284-.474.131-1.088-.343-1.372-.474-.285-1.088-.13-1.372.343l-.577.961c-.438.731-1.167 1.256-1.999 1.441l-2.709.602 1.443-6.011h4.212v1c0 .552.447 1 1 1h3c.553 0 1-.448 1-1v-1h1.936l-.807 12.912c-.089 1.42-.015 2.853.219 4.255l.643 3.859zm9.792 0-3.901-35.11c-.001-.01-.007-.018-.009-.029-.001-.009.002-.017.001-.026l-.666-3.998c-.209-1.253-.274-2.532-.195-3.802l.813-13.035h2.061v1c0 .552.447 1 1 1h1.434l1.798 2.996c.72 1.199 1.915 2.061 3.28 2.364l3.66.813c.633 2.665 1.014 5.398 1.128 8.127l1.657 39.7z"/></svg>