<svg id="Layer_1" enable-background="new 0 0 24 24" height="24" viewBox="0 0 24 24" width="24" xmlns="http://www.w3.org/2000/svg">
  <g>
    <path d="m23.671 10.292-2.251-6.755c-.231-.693-.755-1.24-1.44-1.498-5.32-1.993-5.034-1.887-5.068-1.896-.073-.018-6.032-.013-6.084-.004-.047.009.277-.065-5.063 1.897-.68.255-1.203.801-1.44 1.498-2.462 7.387-2.307 6.843-2.307 7.078 0 .545.426 1.004.97 1.046l3.841.296v10.41c0 .154.096.292.241.346 3.894 1.46 9.463 1.568 13.653 0 .145-.054.241-.192.241-.346v-10.41l3.84-.296c.668-.051 1.133-.723.916-1.376zm-11.224-6.396c1.58 0 2.895-1.164 3.132-2.683l.671.252c-.351 1.805-1.939 3.133-3.797 3.133-1.858 0-3.446-1.328-3.796-3.133l.671-.252c.237 1.519 1.552 2.683 3.129 2.683zm-2.431-2.682h4.862c-.171 1.188-1.191 2.104-2.431 2.104s-2.261-.916-2.431-2.104zm12.691 9.544-3.715.285v-2.511c0-.2-.162-.362-.362-.362s-.362.162-.362.362v13.145c-3.647 1.285-8.578 1.33-12.326 0 0-.414 0-13.022 0-13.145 0-.2-.162-.362-.362-.362s-.362.162-.362.362v2.511l-3.716-.285c-.158-.012-.281-.146-.281-.306 0-.078-.126.363 2.06-6.821.145-.478.475-.854.906-1.03l2.865-1.074c.439 2.006 2.204 3.471 4.267 3.471 2.063 0 3.828-1.465 4.267-3.471l2.866 1.074c.431.175.761.552.906 1.03 2.195 6.591 2.06 6.172 2.06 6.821.001.16-.124.294-.282.306z"/>
  </g>
</svg>
