<svg xmlns="http://www.w3.org/2000/svg" xmlns:xlink="http://www.w3.org/1999/xlink" width="18px" height="18px" viewBox="0 0 18 18" version="1.1">
<g id="surface1">
<path style=" stroke:none;fill-rule:nonzero;fill:#1A162E;fill-opacity:1;" d="M 2.636719 2.636719 L 1.441406 1.441406 C 0.910156 0.910156 0 1.285156 0 2.035156 L 0 5.90625 C 0 6.375 0.375 6.75 0.84375 6.75 L 4.714844 6.75 C 5.46875 6.75 5.84375 5.839844 5.3125 5.308594 L 4.230469 4.226562 C 5.449219 3.007812 7.136719 2.25 9 2.25 C 12.726562 2.25 15.75 5.273438 15.75 9 C 15.75 12.726562 12.726562 15.75 9 15.75 C 7.566406 15.75 6.238281 15.304688 5.144531 14.539062 C 4.632812 14.1875 3.933594 14.308594 3.574219 14.820312 C 3.21875 15.328125 3.34375 16.027344 3.851562 16.386719 C 5.316406 17.402344 7.089844 18 9 18 C 13.972656 18 18 13.972656 18 9 C 18 4.027344 13.972656 0 9 0 C 6.515625 0 4.265625 1.007812 2.636719 2.636719 Z M 9 4.5 C 8.53125 4.5 8.15625 4.875 8.15625 5.34375 L 8.15625 9 C 8.15625 9.226562 8.242188 9.4375 8.402344 9.597656 L 10.933594 12.128906 C 11.265625 12.460938 11.796875 12.460938 12.125 12.128906 C 12.453125 11.796875 12.457031 11.265625 12.125 10.9375 L 9.839844 8.652344 L 9.839844 5.34375 C 9.839844 4.875 9.464844 4.5 8.996094 4.5 Z M 9 4.5 "/>
</g>
</svg>