<svg xmlns="http://www.w3.org/2000/svg" xmlns:xlink="http://www.w3.org/1999/xlink" width="18px" height="18px" viewBox="0 0 18 18" version="1.1">
<g id="surface1">
<path style=" stroke:none;fill-rule:nonzero;fill:#1A162E;fill-opacity:1;" d="M 1.671875 10.5625 L 8.027344 16.492188 C 8.289062 16.738281 8.636719 16.875 9 16.875 C 9.363281 16.875 9.710938 16.738281 9.972656 16.492188 L 16.328125 10.5625 C 17.394531 9.566406 18 8.171875 18 6.710938 L 18 6.507812 C 18 4.050781 16.226562 1.953125 13.800781 1.550781 C 12.199219 1.28125 10.566406 1.808594 9.421875 2.953125 L 9 3.375 L 8.578125 2.953125 C 7.433594 1.808594 5.800781 1.28125 4.199219 1.550781 C 1.773438 1.953125 0 4.050781 0 6.507812 L 0 6.710938 C 0 8.171875 0.605469 9.566406 1.671875 10.5625 Z M 1.671875 10.5625 "/>
</g>
</svg>