<svg xmlns="http://www.w3.org/2000/svg" xmlns:xlink="http://www.w3.org/1999/xlink" width="18px" height="18px" viewBox="0 0 18 18" version="1.1">
<g id="surface1">
<path style=" stroke:none;fill-rule:nonzero;fill:#ed4337;fill-opacity:1;" d="M 9 1.125 C 9.5 1.125 9.960938 1.390625 10.210938 1.820312 L 17.804688 14.757812 C 18.0625 15.195312 18.0625 15.734375 17.8125 16.167969 C 17.5625 16.605469 17.097656 16.875 16.59375 16.875 L 1.40625 16.875 C 0.902344 16.875 0.4375 16.605469 0.1875 16.167969 C -0.0625 15.730469 -0.0585938 15.191406 0.191406 14.757812 L 7.789062 1.820312 C 8.039062 1.390625 8.5 1.125 9 1.125 Z M 9 5.625 C 8.53125 5.625 8.15625 6 8.15625 6.46875 L 8.15625 10.40625 C 8.15625 10.875 8.53125 11.25 9 11.25 C 9.46875 11.25 9.84375 10.875 9.84375 10.40625 L 9.84375 6.46875 C 9.84375 6 9.46875 5.625 9 5.625 Z M 10.125 13.5 C 10.125 12.878906 9.621094 12.375 9 12.375 C 8.378906 12.375 7.875 12.878906 7.875 13.5 C 7.875 14.121094 8.378906 14.625 9 14.625 C 9.621094 14.625 10.125 14.121094 10.125 13.5 Z M 10.125 13.5 "/>
</g>
</svg>