<svg xmlns="http://www.w3.org/2000/svg" xmlns:xlink="http://www.w3.org/1999/xlink" width="18px" height="18px" viewBox="0 0 18 18" version="1.1">
<g id="surface1">
<path style=" stroke:none;fill-rule:nonzero;fill:#1A162E;fill-opacity:1;" d="M 17.667969 9.792969 C 18.109375 9.355469 18.109375 8.640625 17.667969 8.203125 L 13.167969 3.703125 C 12.730469 3.261719 12.015625 3.261719 11.578125 3.703125 C 11.136719 4.140625 11.136719 4.855469 11.578125 5.292969 L 14.15625 7.875 L 6.75 7.875 C 6.128906 7.875 5.625 8.378906 5.625 9 C 5.625 9.621094 6.128906 10.125 6.75 10.125 L 14.15625 10.125 L 11.578125 12.707031 C 11.136719 13.144531 11.136719 13.859375 11.578125 14.296875 C 12.015625 14.738281 12.730469 14.738281 13.167969 14.296875 L 17.667969 9.796875 Z M 5.625 3.375 C 6.246094 3.375 6.75 2.871094 6.75 2.25 C 6.75 1.628906 6.246094 1.125 5.625 1.125 L 3.375 1.125 C 1.511719 1.125 0 2.636719 0 4.5 L 0 13.5 C 0 15.363281 1.511719 16.875 3.375 16.875 L 5.625 16.875 C 6.246094 16.875 6.75 16.371094 6.75 15.75 C 6.75 15.128906 6.246094 14.625 5.625 14.625 L 3.375 14.625 C 2.753906 14.625 2.25 14.121094 2.25 13.5 L 2.25 4.5 C 2.25 3.878906 2.753906 3.375 3.375 3.375 Z M 5.625 3.375 "/>
</g>
</svg>