<svg xmlns="http://www.w3.org/2000/svg" xmlns:xlink="http://www.w3.org/1999/xlink" width="14px" height="19px" viewBox="0 0 14 18" version="1.1">
<g id="surface1">
<path style=" stroke:none;fill-rule:nonzero;fill:#1A162E;fill-opacity:1;" d="M 8.148438 1.125 C 3.644531 1.125 0 4.652344 0 9 C 0 13.347656 3.644531 16.875 8.148438 16.875 C 10.359375 16.875 12.359375 16.023438 13.828125 14.644531 C 14.011719 14.472656 14.058594 14.207031 13.941406 13.988281 C 13.824219 13.769531 13.574219 13.648438 13.320312 13.691406 C 12.964844 13.75 12.601562 13.78125 12.222656 13.78125 C 8.691406 13.78125 5.824219 11.011719 5.824219 7.59375 C 5.824219 5.28125 7.136719 3.265625 9.082031 2.203125 C 9.304688 2.082031 9.417969 1.835938 9.363281 1.597656 C 9.308594 1.355469 9.097656 1.179688 8.839844 1.15625 C 8.613281 1.140625 8.382812 1.128906 8.148438 1.128906 Z M 8.148438 1.125 "/>
</g>
</svg>
