<svg xmlns="http://www.w3.org/2000/svg" xmlns:xlink="http://www.w3.org/1999/xlink" width="18px" height="18px" viewBox="0 0 18 18" version="1.1">
<g id="surface1">
<path style=" stroke:none;fill-rule:nonzero;fill:#1A162E;fill-opacity:1;" d="M 15.503906 2.070312 L 15.929688 2.496094 C 16.257812 2.828125 16.257812 3.359375 15.929688 3.6875 L 14.90625 4.714844 L 13.285156 3.09375 L 14.308594 2.070312 C 14.640625 1.742188 15.171875 1.742188 15.5 2.070312 Z M 7.375 9.007812 L 12.09375 4.285156 L 13.714844 5.90625 L 8.992188 10.625 C 8.890625 10.726562 8.765625 10.800781 8.628906 10.839844 L 6.570312 11.425781 L 7.15625 9.367188 C 7.195312 9.230469 7.269531 9.105469 7.371094 9.003906 Z M 13.117188 0.878906 L 6.179688 7.8125 C 5.875 8.117188 5.652344 8.492188 5.539062 8.90625 L 4.53125 12.421875 C 4.445312 12.714844 4.527344 13.03125 4.746094 13.25 C 4.964844 13.46875 5.28125 13.550781 5.574219 13.464844 L 9.089844 12.460938 C 9.507812 12.339844 9.882812 12.117188 10.183594 11.816406 L 17.121094 4.882812 C 18.109375 3.894531 18.109375 2.292969 17.121094 1.304688 L 16.695312 0.878906 C 15.707031 -0.109375 14.105469 -0.109375 13.117188 0.878906 Z M 3.09375 2.25 C 1.386719 2.25 0 3.636719 0 5.34375 L 0 14.90625 C 0 16.613281 1.386719 18 3.09375 18 L 12.65625 18 C 14.363281 18 15.75 16.613281 15.75 14.90625 L 15.75 10.96875 C 15.75 10.5 15.375 10.125 14.90625 10.125 C 14.4375 10.125 14.0625 10.5 14.0625 10.96875 L 14.0625 14.90625 C 14.0625 15.683594 13.433594 16.3125 12.65625 16.3125 L 3.09375 16.3125 C 2.316406 16.3125 1.6875 15.683594 1.6875 14.90625 L 1.6875 5.34375 C 1.6875 4.566406 2.316406 3.9375 3.09375 3.9375 L 7.03125 3.9375 C 7.5 3.9375 7.875 3.5625 7.875 3.09375 C 7.875 2.625 7.5 2.25 7.03125 2.25 Z M 3.09375 2.25 "/>
</g>
</svg>
