<svg xmlns="http://www.w3.org/2000/svg" xmlns:xlink="http://www.w3.org/1999/xlink" width="24px" height="24px" viewBox="0 0 24 24" version="1.1">
<g id="surface1">
<path style=" stroke:none;fill-rule:nonzero;fill:#1A162E;fill-opacity:1;" d="M 7.730469 1.152344 C 7.367188 0.28125 6.417969 -0.183594 5.507812 0.0664062 L 1.382812 1.191406 C 0.566406 1.414062 0 2.15625 0 3 C 0 14.597656 9.402344 24 21 24 C 21.84375 24 22.585938 23.433594 22.808594 22.617188 L 23.933594 18.492188 C 24.183594 17.582031 23.71875 16.632812 22.847656 16.269531 L 18.347656 14.394531 C 17.582031 14.078125 16.695312 14.296875 16.175781 14.9375 L 14.28125 17.25 C 10.984375 15.6875 8.3125 13.015625 6.75 9.71875 L 9.0625 7.828125 C 9.703125 7.304688 9.921875 6.421875 9.605469 5.65625 L 7.730469 1.15625 Z M 7.730469 1.152344 "/>
</g>
</svg>
