<svg xmlns="http://www.w3.org/2000/svg" xmlns:xlink="http://www.w3.org/1999/xlink" width="18px" height="18px" viewBox="0 0 18 18" version="1.1">
<g id="surface1">
<path style=" stroke:none;fill-rule:nonzero;fill:#1A162E;fill-opacity:1;" d="M 12.710938 0.0429688 C 12.882812 0.117188 13.011719 0.273438 13.046875 0.460938 L 13.746094 4.253906 L 17.539062 4.949219 C 17.726562 4.984375 17.882812 5.113281 17.957031 5.289062 C 18.03125 5.464844 18.011719 5.664062 17.902344 5.820312 L 15.710938 9 L 17.902344 12.175781 C 18.011719 12.332031 18.03125 12.53125 17.957031 12.710938 C 17.882812 12.882812 17.726562 13.011719 17.539062 13.046875 L 13.746094 13.746094 L 13.046875 17.539062 C 13.011719 17.726562 12.882812 17.882812 12.710938 17.957031 C 12.53125 18.03125 12.332031 18.011719 12.175781 17.902344 L 9 15.710938 L 5.824219 17.902344 C 5.667969 18.011719 5.46875 18.03125 5.289062 17.957031 C 5.117188 17.882812 4.988281 17.726562 4.953125 17.539062 L 4.253906 13.746094 L 0.460938 13.046875 C 0.273438 13.011719 0.117188 12.882812 0.0429688 12.710938 C -0.03125 12.53125 -0.0117188 12.332031 0.0976562 12.175781 L 2.289062 9 L 0.0976562 5.824219 C -0.0117188 5.667969 -0.03125 5.46875 0.0429688 5.289062 C 0.117188 5.117188 0.273438 4.988281 0.460938 4.953125 L 4.253906 4.253906 L 4.953125 0.460938 C 4.988281 0.273438 5.117188 0.117188 5.289062 0.0429688 C 5.46875 -0.03125 5.667969 -0.0117188 5.824219 0.0976562 L 9 2.289062 L 12.175781 0.0976562 C 12.332031 -0.0117188 12.53125 -0.03125 12.710938 0.0429688 Z M 5.625 9 C 5.625 7.136719 7.136719 5.625 9 5.625 C 10.863281 5.625 12.375 7.136719 12.375 9 C 12.375 10.863281 10.863281 12.375 9 12.375 C 7.136719 12.375 5.625 10.863281 5.625 9 Z M 13.5 9 C 13.5 6.515625 11.484375 4.5 9 4.5 C 6.515625 4.5 4.5 6.515625 4.5 9 C 4.5 11.484375 6.515625 13.5 9 13.5 C 11.484375 13.5 13.5 11.484375 13.5 9 Z M 13.5 9 "/>
</g>
</svg>
